<?xml version="1.0" encoding="UTF-8"?>
<svg width="22px" height="22px" viewBox="0 0 22 22" version="1.1" xmlns="http://www.w3.org/2000/svg" xmlns:xlink="http://www.w3.org/1999/xlink">
    <!-- Generator: Sketch 48.1 (47250) - http://www.bohemiancoding.com/sketch -->
    <title>Group</title>
    <desc>Created with Sketch.</desc>
    <defs></defs>
    <g id="Настройки-профиля" stroke="none" stroke-width="1" fill="none" fill-rule="evenodd" transform="translate(-707.000000, -30.000000)" opacity="0.5">
        <g id="Head" transform="translate(59.000000, 20.000000)" fill="#303030">
            <g id="Balance" transform="translate(648.000000, 10.000000)">
                <g id="Group">
                    <path d="M1,6.04085859 L1,19.7288586 C1,20.0038586 1.225,20.2288586 1.5,20.2288586 L19.5,20.2288586 C20.327,20.2288586 21,19.5558586 21,18.7288586 L21,7.72785859 C21,6.90085859 20.327,6.22785859 19.5,6.22785859 L1.761,6.22785859 C1.49,6.22785859 1.231,6.15985859 1,6.04085859 M19.5,21.2288586 L1.5,21.2288586 C0.673,21.2288586 0,20.5558586 0,19.7288586 L0,4.22885859 C0,4.16785859 0.011,4.10985859 0.03,4.05785859 C0.185,3.22785859 0.914,2.57885859 1.761,2.57885859 L16.808,0.00685858725 C17.077,-0.0381414127 17.338,0.142858587 17.385,0.415858587 C17.431,0.687858587 17.248,0.945858587 16.976,0.992858587 L1.845,3.57185859 C1.356,3.57885859 1,3.95485859 1,4.38285859 C1,4.82485859 1.362,5.22885859 1.761,5.22885859 L19.5,5.22885859 C20.879,5.22885859 22,6.34985859 22,7.72785859 L22,18.7288586 C22,20.1068586 20.879,21.2288586 19.5,21.2288586" id="Fill-3432"></path>
                    <path d="M18.5,12 C18.225,12 18,12.225 18,12.5 C18,12.775 18.225,13 18.5,13 C18.775,13 19,12.775 19,12.5 C19,12.225 18.775,12 18.5,12 M18.5,14 C17.673,14 17,13.327 17,12.5 C17,11.673 17.673,11 18.5,11 C19.327,11 20,11.673 20,12.5 C20,13.327 19.327,14 18.5,14" id="Fill-3436"></path>
                    <path d="M21.5,17 L16.892,17 C15.216,17 14,15.803 14,14.154 L14,11.633 C14,10.033 15.135,9 16.892,9 L21.5,9 C21.776,9 22,9.224 22,9.5 C22,9.776 21.776,10 21.5,10 L16.892,10 C16.323,10 15,10.159 15,11.633 L15,14.154 C15,15.258 15.76,16 16.892,16 L21.5,16 C21.776,16 22,16.224 22,16.5 C22,16.776 21.776,17 21.5,17" id="Fill-3437"></path>
                </g>
            </g>
        </g>
    </g>
</svg>