<?xml version="1.0" encoding="UTF-8"?>
<svg width="26px" height="26px" viewBox="0 0 26 26" version="1.1" xmlns="http://www.w3.org/2000/svg" xmlns:xlink="http://www.w3.org/1999/xlink">
    <!-- Generator: Sketch 48.1 (47250) - http://www.bohemiancoding.com/sketch -->
    <title>icon_операции</title>
    <desc>Created with Sketch.</desc>
    <defs></defs>
    <g id="Symbols" stroke="none" stroke-width="1" fill="none" fill-rule="evenodd">
        <g id="icon_операции" stroke="#FFFFFF">
            <g id="Group-11">
                <path d="M20,2.27030245 L23.5,2.27020202 C24.6045695,2.27018185 25.5000163,3.165596 25.5000365,4.2701655 C25.5000365,4.27017767 25.5000365,4.27018985 25.5000365,4.27020202 L25.5,18 C25.5,18.5522847 25.0522847,19 24.5,19 L1.5,19 C0.94771525,19 0.5,18.5522847 0.5,18 L0.499952868,4.27020202 C0.499952868,3.16563252 1.39538337,2.27020202 2.49995287,2.27020202 C2.49996858,2.27020202 2.49998429,2.27020202 2.5,2.27020202 L4.76136364,2.27030245" id="Path-2" stroke-width="0.7"></path>
                <polygon id="Path-4" stroke-width="0.5" points="5 14.3914141 19.8181818 14.3914141 19.8181818 0.25 5 0.25"></polygon>
                <path d="M12,19 L11.5,22.219697 C8.53579108,22.2720285 6.66836684,22.4403786 5.89772727,22.7247475 C4.61533654,23.1979544 3.85776078,24.0397052 3.625,25.25 L21.5,25.25 C21.1852037,23.995367 20.3518704,23.1115286 19,22.5984848 C18.3556582,22.3539529 16.6889916,22.2276902 14,22.219697 L13.5,19 L12,19 Z" id="Path-6" stroke-width="0.5"></path>
                <polyline id="Path-5" stroke-width="0.2" points="7.31818182 14.1388889 7.31818182 4.29040404 9.30681818 4.03787879 9.30681818 2.27020202 15.5568182 2.27020202 15.5568182 4.03787879 17.2613636 4.29040404 17.2613636 14.1388889"></polyline>
                <ellipse id="Oval-5" stroke-width="0.2" cx="12.5" cy="11" rx="2.5" ry="2"></ellipse>
            </g>
        </g>
    </g>
</svg>